<?xml version="1.0" encoding="UTF-8"?>
<svg id="Layer_2" data-name="Layer 2" xmlns="http://www.w3.org/2000/svg" viewBox="0 0 172.87 172.87">
  <defs>
    <style>
      .cls-1 {
        fill: #fff;
      }

      .cls-2 {
        fill: #052e16;
      }
    </style>
  </defs>
  <g id="Layer_1-2" data-name="Layer 1">
    <g>
      <rect class="cls-2" width="172.87" height="172.87"/>
      <g>
        <path class="cls-1" d="M20.4,32.36h30.53c26.66,0,32.01,4.83,32.01,25.05,0,20.22-5.35,25.05-32.01,25.05h-30.53v-50.11ZM50.93,71.58c16.94,0,18.81-1.35,18.81-14.23,0-12.75-1.87-14.11-18.81-14.11h-17.45v28.34h17.45Z"/>
        <path class="cls-1" d="M152.63,82.47h-38.39c-16.36,0-21.45-3.74-21.45-13.78,0-7.28,2.64-10.5,9.66-11.98v-.26c-5.8-1.55-7.99-4.57-7.99-11.08,0-9.53,4.57-13.01,19.9-13.01h38.26v50.11ZM139.68,52v-9.53s-25.38,0-25.38,0c-5.41,0-6.95.96-6.95,4.83s1.48,4.7,6.89,4.7h25.44ZM139.68,72.35v-10.5s-25.44,0-25.44,0c-6.63,0-8.37.97-8.37,5.22s1.68,5.28,8.37,5.28h25.44Z"/>
        <path class="cls-1" d="M20.4,90.5h62.31v10.86h-49.22v10.6h47.14v10.86h-47.14v17.67h-13.09v-50Z"/>
        <path class="cls-1" d="M115.1,115.43l-20.8-24.94h14.24l14.18,17.16,14.35-17.16h14.07l-20.69,24.94,22.18,25.06h-14.68l-15.29-18.06-15.12,18.06h-14.68l22.24-25.06Z"/>
      </g>
    </g>
  </g>
</svg>